<svg width="24" height="24" viewBox="0 0 24 24" fill="none" xmlns="http://www.w3.org/2000/svg">
  <path d="M4.98788 11.4269C4.98786 11.2928 5.01431 11.1601 5.06571 11.0363C5.11711 10.9126 5.19245 10.8002 5.2874 10.7056C5.38235 10.6111 5.49504 10.5362 5.619 10.4853C5.74296 10.4345 5.87574 10.4086 6.00972 10.4092L7.70384 10.4148C7.97396 10.4148 8.23302 10.5221 8.42402 10.7132C8.61503 10.9043 8.72233 11.1634 8.72233 11.4336V17.842C8.91317 17.7854 9.15793 17.7251 9.42606 17.6622C9.61222 17.6183 9.77814 17.5129 9.8969 17.3629C10.0157 17.213 10.0803 17.0273 10.0804 16.8359V8.88695C10.0803 8.61671 10.1876 8.35752 10.3786 8.1664C10.5696 7.97529 10.8287 7.8679 11.0988 7.86785H12.7964C13.0665 7.86792 13.3256 7.97532 13.5166 8.16643C13.7076 8.35754 13.8149 8.61671 13.8149 8.88695V16.2647C13.8149 16.2647 14.2397 16.0926 14.6538 15.9178C14.8076 15.8527 14.9388 15.7438 15.0311 15.6046C15.1234 15.4654 15.1727 15.3021 15.1728 15.1351V6.33937C15.1728 6.20558 15.1991 6.0731 15.2503 5.94949C15.3015 5.82589 15.3765 5.71357 15.4711 5.61896C15.5656 5.52435 15.6779 5.4493 15.8014 5.39809C15.925 5.34688 16.0574 5.32052 16.1912 5.32051H17.8887C18.1588 5.32051 18.4179 5.42785 18.6089 5.61892C18.7999 5.80999 18.9073 6.06914 18.9073 6.33937V13.5822C20.3789 12.5153 21.8704 11.2319 23.054 9.68891C23.2258 9.46493 23.3394 9.20191 23.3848 8.92331C23.4302 8.64472 23.406 8.35921 23.3142 8.09227C22.5134 5.75751 21.0112 3.72718 19.0131 2.27891C17.0149 0.830631 14.6184 0.0350992 12.1511 0.0010879C5.4979 -0.0883183 -0.000595993 5.34462 5.75688e-05 12.001C-0.00647504 14.1073 0.543066 16.1779 1.59311 18.0036C1.73792 18.2533 1.95096 18.4565 2.20721 18.5893C2.46345 18.7221 2.75225 18.779 3.03969 18.7533C3.36084 18.725 3.76065 18.685 4.23596 18.6292C4.44284 18.6057 4.63383 18.5068 4.77256 18.3515C4.9113 18.1962 4.98808 17.9952 4.98829 17.787V11.4269" fill="#FF3864"/>
  <path d="M4.95101 21.7043C6.74029 23.0064 8.85478 23.788 11.0605 23.9626C13.2663 24.1372 15.4774 23.698 17.4491 22.6935C19.4208 21.6891 21.0763 20.1586 22.2325 18.2714C23.3887 16.3842 24.0004 14.2138 24.0001 12.0003C24.0001 11.724 23.9872 11.4508 23.9688 11.1791C19.5865 17.717 11.495 20.7739 4.95093 21.7046" fill="#FF3864"/>
</svg>
